<svg xmlns="http://www.w3.org/2000/svg" id="Layer_1" data-name="Layer 1" viewBox="0 0 717.28 172.11" fill="#000"><defs><style>.cls-1{fill:currentColor}</style></defs><g id="Transport_for_Cairo_Logo" data-name="Transport for Cairo Logo"><path d="M704.43 52.64s1.67-7.8 5.38-8.48 7.95 1.81 7.42 4.77-1 5.45-6.74 8-12 3.86-16.59 3.63a13.41 13.41 0 0 1-3.71 7.8 21 21 0 0 1-12.57 5.61 46.67 46.67 0 0 1-11.36-.57c-1.67-.49-1.67-1.71.87-2.73a100.46 100.46 0 0 1 11.85-3.29c4.93-1.18 9.47-3.07 10.38-4.32s.15-2.23-.79-2.12-3.72.56-4.93-1.9.44-6.43 1.86-8.91 4.44-3 6.26-1a17.29 17.29 0 0 1 3 4.5c0 .35-.15.9.2.86s.79-.65.79-.65 6.69-.44 8.68-1.2ZM665.97 61.29s-.69 1.37-1.37 1.62-1.23-1.8-1.4-3.84-2.11-10.07-2.54-14.71.6-9.24 1.46-10.4 1.5-2.52 2.17.24a106.77 106.77 0 0 1 2 13.56c.3 4.35.68 5.33.64 8.36a14.14 14.14 0 0 1-.96 5.17ZM650.76 46.28c-1.92-2.18-5.93-1.9-10.71 1.44s-11.51 11.13-11.51 11.13c-4.85.55-4.8-1-4.9-2s.61-2.27-.1-3-2.52 2.12-4.79 3.33a18.36 18.36 0 0 1-8.27 2.4c-3.75.23-3.9-1.67-4.21-2.88s-1.21-9.58-1.44-14-1.21-13.56-2.34-14.32-3.34 4.7-2.88 8 1.29 15.15 1.59 17.57-.3 3.64-2.42 4.4-8 1.82-10.15.76-1.9-7.2-2.35-11.52-3.49-4.92-11.82-6-34.76 2.42-39.76 9.69-5.15 9.47 1.74 11.9 14.54 1.81 24.09-.16 16.26-7.44 17.82-9.12 1.31-2.32.51-2.37S573 54 568.15 55.31a67.37 67.37 0 0 1-20.85 2.07c-7.83-.55-9.24-1.61-9.09-2.47s5-3.33 20.2-5.38 20.55.23 22.36 1.09 1.76 9.74 2 11.3.22 3.93 4 4.2a23.37 23.37 0 0 0 10.62-1.54c3.43-1.37 4-3.34 4.39-3.19s.5 2.33 1.16 2.93 1 2.78 7.42 1.87 8.19-2.54 9-3.24.82-.31.82-.31c1.86 3.34 8.3 3 15.57 1.33s13.66-4.34 15.32-8.23 1.61-7.29-.31-9.46Zm-8.77 10.11c-3.22.91-6.22 2.27-8 1.78 0 0 4.17-5 7.43-6.1s5.45 1.1 5.26 1.74-1.48 1.67-4.69 2.58ZM550.2 29.64a21.73 21.73 0 0 0 5.89-1.31c2.93-1.14 4.4-2.39 6.56-2.81s1.21 4-.34 5.61-4.28 2.57-7.84 1.82-4.81-1.78-4.77-2.54.5-.77.5-.77ZM647.03 99.1a21.18 21.18 0 0 0 5.84-1.31c2.94-1.14 4.41-2.39 6.57-2.8s1.21 4-.35 5.6-4.27 2.58-7.83 1.82-4.81-1.78-4.78-2.54.55-.77.55-.77ZM550.2 95.25a21.73 21.73 0 0 0 5.85-1.31c2.93-1.15 4.4-2.39 6.56-2.81s1.21 4-.34 5.61-4.28 2.57-7.84 1.81-4.81-1.78-4.77-2.53.54-.77.54-.77Z" class="cls-1"/><path d="M694.32 96.34c-.45-2-1.29-1.44-1.82-.79a15.7 15.7 0 0 0-2.15 7.3c.07 2.81 2 15.53 2 17.42s1.29 2.58-3 4.32a12.68 12.68 0 0 1-7.12 1.06c-1.6-.45-1.89-.83-2.27-2.88s-1.86-18.78-2-21-.83-6.9-1.85-6.8-3 4-2.88 6.66 1.36 15.66 1.63 18.35.07 3.11-.53 3.64a15.07 15.07 0 0 1-7.67 2.14c-3.93.1-6.91-.2-7-.76s1.66-2.27 2.42-5.2.76-7.42-3-7.82-8.84 6.16-10.2 8.53a11.4 11.4 0 0 0-1.31 4.55c-.21.45-1.57 1.11-5.86 1.16s-4.75-.46-5.25-1.37-1.31-11.56-1.72-17.21-.76-12.07-2.17-12-3 4-3.23 6.56 2.73 24.29 2.78 26.92 1.51 3.43 3.28 3.83 4.44.86 9.64-.31 6.64-2.46 6.64-2.46c1 .91 4 2.12 9.32 2.41s8.37-.67 10.72-1.92 3.06-3 3.67-3 .07 1.21.91 2.46 1.89 2.95 7.65 2.31 7.81-2.72 9.06-4.32a20.6 20.6 0 0 0 3.43-11.74 149.51 149.51 0 0 0-2.12-20.04Zm-38.13 26.71a3 3 0 0 1-4.14-.26 1.41 1.41 0 0 1 0-2s1.31-1.94 2.85-2.28 2.34.85 2.54 2 .06 1.57-1.25 2.54ZM619.55 101.77c-.6-2.83-2.27-8.23-5-8.89s-4.09 1.26-9.11 5a16.25 16.25 0 0 0-6.13 8.42s-.13 1.48.67 1.44 1.24-.6 6.32-5.22 5.91-1.9 6.82-.53 4.31 12.49 3.1 14.46-6.59 3.11-7.19 3.26.75-1.9 1.66-5.53-.53-6.29-2.57-6.74-4.72 1.39-7.91 6.23-2.47 7.25-2.47 7.25c-3.86.61-10.07 4.24-13 6a8.88 8.88 0 0 0-4.31 4.7c-1 1.89-2.5 2.2-4.4 2.57a87.92 87.92 0 0 0-9.41 2.58c-1.92.76-2.73 1.36-1.22 3.28s4.45 1.92 8.64 2 6.21-2.32 8-4.44 4.39-6.11 8.43-7.93a64.56 64.56 0 0 1 10.15-3.18c2.07 1.16 8.13.15 10.4-.76s7.42-2.83 9.24-9.69-.1-11.47-.71-14.28Zm-12.86 16.27a4.09 4.09 0 0 1-2.76 1.7c-1.75.27-2.13.12-2.54-1.51a4 4 0 0 1 1.21-2.24c1.1-1.06 3.07-2.31 3.9-.79a2.77 2.77 0 0 1 .19 2.84ZM530.43 118.08a34.59 34.59 0 0 1 15.55-7.37c10-2.13 16.87-2.13 19.39 1.61s-.1 10-2 13.23-6.36 7.88-11.21 7.47-5.2-3.53-4.29-7.52 4.6-8 5.61-8.48 1.66-.08 1.46.34-3.28 4.66-3.43 6 1.26 2.27 4.14 1.31 5.5-2.88 5.65-3.78 1.27-3-3.13-4.65-10.73-1.44-16.1-.08a53.26 53.26 0 0 0-9.64 3.68c-1.53.56-3.77.85-2-1.76ZM8.91 72.33V43.65H0v-6.52h25.2v6.52h-8.94v28.68H8.91zM41.45 46.83h-7.22a6.21 6.21 0 0 0-6.21 6.21v19.09h6.26v-17a2.4 2.4 0 0 1 2.4-2.4h4.77ZM166.55 105.85h-7.22a6.21 6.21 0 0 0-6.21 6.21v19.09h6.26v-17a2.4 2.4 0 0 1 2.4-2.4h4.77ZM72.81 105.85h-7.22a6.21 6.21 0 0 0-6.21 6.21v19.09h6.26v-17a2.39 2.39 0 0 1 2.4-2.4h4.77ZM189.37 46.83h-7.22a6.21 6.21 0 0 0-6.21 6.21v19.09h6.26v-17a2.4 2.4 0 0 1 2.4-2.4h4.77ZM59.03 46.83H44.89v5.91h13.2a2.2 2.2 0 0 1 0 4.39h-8.2a6.11 6.11 0 0 0-6.11 6.11v3.34a5.74 5.74 0 0 0 5.74 5.74h16.57V53.9a7.07 7.07 0 0 0-7.06-7.07Zm1 19.63h-8.6a1.86 1.86 0 1 1 0-3.71h8.66ZM132.09 105.85h-14.13v5.91h13.23a2.2 2.2 0 1 1 0 4.39h-8.23a6.12 6.12 0 0 0-6.11 6.11v3.32a5.74 5.74 0 0 0 5.75 5.74h16.57v-18.4a7.07 7.07 0 0 0-7.08-7.07Zm1 19.63h-8.59a1.86 1.86 0 1 1 0-3.71h8.59ZM70.18 71.07V49.92a3.1 3.1 0 0 1 3.1-3.09h11.46a8.47 8.47 0 0 1 8.47 8.47v16.52a.51.51 0 0 1-.51.51h-5.08a.51.51 0 0 1-.51-.51v-16.1a3.55 3.55 0 0 0-3.54-3.54h-5.94a1.59 1.59 0 0 0-1.54 1.59v17.18a1.22 1.22 0 0 1-1.17 1.22l-3.43.12a1.22 1.22 0 0 1-1.31-1.22ZM96.85 71.58v-4.57a.74.74 0 0 1 .73-.74h13.83a1.43 1.43 0 0 0 1.44-1.44v-1.25a1.44 1.44 0 0 0-1.44-1.44h-7.89a6.45 6.45 0 0 1-6.43-6.41v-2.45a6.45 6.45 0 0 1 6.45-6.45h13.74a.41.41 0 0 1 .41.42v5.2a.41.41 0 0 1-.41.42h-12.8a1.57 1.57 0 0 0-1.58 1.57v.57a1.58 1.58 0 0 0 1.58 1.57h8.48a5.81 5.81 0 0 1 5.81 5.81v4.13a5.81 5.81 0 0 1-5.81 5.81H97.58a.74.74 0 0 1-.73-.75ZM134.78 46.83H123.3a.6.6 0 0 0-.6.6v33.64a.6.6 0 0 0 .6.6h4.56a.59.59 0 0 0 .59-.6v-8.14a.6.6 0 0 1 .6-.6h5.73a10.29 10.29 0 0 0 10.31-10.29v-4.92a10.29 10.29 0 0 0-10.31-10.29Zm4.9 14.44a5.12 5.12 0 0 1-5.12 5.12h-5.58a.44.44 0 0 1-.44-.44v-12.8a.44.44 0 0 1 .44-.44h5.58a5.12 5.12 0 0 1 5.12 5.12ZM165.31 46.83h-10.95a7 7 0 0 0-7 7v11.48a7 7 0 0 0 7 7h10.95a7 7 0 0 0 7-7V53.85a7 7 0 0 0-7-7.02Zm1 16.54a2.9 2.9 0 0 1-2.9 2.9h-7.07a2.9 2.9 0 0 1-2.9-2.9v-7.68a2.9 2.9 0 0 1 2.9-2.9h7.07a2.9 2.9 0 0 1 2.9 2.9ZM186.56 105.75h-11a7 7 0 0 0-7 7v11.46a7 7 0 0 0 7 7h11a7 7 0 0 0 7-7v-11.44a7 7 0 0 0-7-7.02Zm1 16.54a2.9 2.9 0 0 1-2.9 2.9h-7.07a2.9 2.9 0 0 1-2.91-2.9v-7.71a2.9 2.9 0 0 1 2.91-2.9h7.07a2.9 2.9 0 0 1 2.9 2.9ZM48.52 105.75h-11a7 7 0 0 0-7 7v11.46a7 7 0 0 0 7 7h11a7 7 0 0 0 7-7v-11.44a7 7 0 0 0-7-7.02Zm1 16.54a2.9 2.9 0 0 1-2.91 2.9H39.5a2.9 2.9 0 0 1-2.9-2.9v-7.71a2.9 2.9 0 0 1 2.9-2.9h7.07a2.9 2.9 0 0 1 2.91 2.9ZM194.4 46.4v-6.35a.44.44 0 0 1 .43-.44h5.26a.44.44 0 0 1 .43.44v6.35a.44.44 0 0 0 .44.43h4.13a.44.44 0 0 1 .43.44v4.93a.44.44 0 0 1-.43.44h-4.2a.43.43 0 0 0-.43.43v12.74a.68.68 0 0 0 .68.69h4a.43.43 0 0 1 .43.43v5a.43.43 0 0 1-.43.44h-6.8a3.91 3.91 0 0 1-3.9-3.9V53.23a.44.44 0 0 0-.44-.44h-2.69a.44.44 0 0 1-.43-.44v-5.08a.44.44 0 0 1 .43-.44H194a.44.44 0 0 0 .4-.43ZM28.09 96.38v5.47a.36.36 0 0 1-.37.37h-4.63a2.12 2.12 0 0 0-2.12 2.12v1a.38.38 0 0 0 .37.37h4.21a.37.37 0 0 1 .37.37v5.07a.36.36 0 0 1-.37.37h-4.18a.38.38 0 0 0-.37.37v19a.37.37 0 0 1-.37.37h-5.16a.37.37 0 0 1-.37-.37v-18.9a.38.38 0 0 0-.37-.38h-2.9a.37.37 0 0 1-.37-.37v-5.12a.38.38 0 0 1 .37-.37h2.79a.38.38 0 0 0 .38-.37v-3a6.36 6.36 0 0 1 6.36-6.36h6.34a.37.37 0 0 1 .39.36ZM112.44 96.01H99.62a11 11 0 0 0-11 11v13.42a11 11 0 0 0 11 11h12.82a.47.47 0 0 0 .46-.46v-5.49a.47.47 0 0 0-.46-.47h-12a4.66 4.66 0 0 1-4.66-4.66v-13.36a4.67 4.67 0 0 1 4.66-4.67h12a.46.46 0 0 0 .46-.46v-5.38a.47.47 0 0 0-.46-.47ZM358.92 167.37c-45.15 0-81.88-36.48-81.88-81.32s36.73-81.32 81.88-81.32 81.89 36.48 81.89 81.32-36.72 81.32-81.89 81.32Zm0-155.36c-41.14 0-74.61 33.21-74.61 74s33.47 74.05 74.61 74.05 74.62-33.22 74.62-74.05-33.45-74-74.62-74Z" class="cls-1"/><rect width="6.26" height="25.5" x="141.94" y="105.85" class="cls-1" rx=".11"/><rect width="6.26" height="6.26" x="141.94" y="96.01" class="cls-1" rx=".08"/><path d="M420.42 61.93V25.24h-36.17L359 0l-25.49 25.5-35.56-.26v36.69l-26 24.29 26 26.71v35.39h35.56l26.7 23.79 24-23.79h36.17v-35.39l25.5-25.5Zm-10.14 46.58v29.57h-30.19L360 157.95l-22.3-19.87h-29.74v-29.57L286.21 86.2l21.75-20.3V35.25l29.71.21 21.3-21.3 21.12 21.09h30.22V65.9l21.28 21.31Z" class="cls-1"/></g></svg>