<svg
	width="174"
	height="173"
	viewBox="0 0 174 173"
	fill="#113AB7"
	xmlns="http://www.w3.org/2000/svg"
>
	<g clip-path="url(#clip0_188_15544)">
		<path
			d="M86.92 167.37C41.77 167.37 5.04004 130.89 5.04004 86.05C5.04004 41.21 41.77 4.73001 86.92 4.73001C132.07 4.73001 168.81 41.21 168.81 86.05C168.81 130.89 132.09 167.37 86.92 167.37ZM86.92 12.01C45.78 12.01 12.31 45.22 12.31 86.01C12.31 126.8 45.78 160.06 86.92 160.06C128.06 160.06 161.54 126.84 161.54 86.01C161.54 45.18 128.09 12.01 86.92 12.01Z"
			fill="#113AB7"
		/>
		<path
			d="M148.42 61.93V25.24H112.25L87.0002 0L61.5102 25.5L25.9502 25.24V61.93L-0.0498047 86.22L25.9502 112.93V148.32H61.5102L88.2102 172.11L112.21 148.32H148.38V112.93L173.88 87.43L148.42 61.93ZM138.28 108.51V138.08H108.09L88.0002 157.95L65.7002 138.08H35.9602V108.51L14.2102 86.2L35.9602 65.9V35.25L65.6702 35.46L86.9702 14.16L108.09 35.25H138.31V65.9L159.59 87.21L138.28 108.51Z"
			fill="#113AB7"
		/>
	</g>
	<defs>
		<clipPath id="clip0_188_15544">
			<rect width="174" height="173" fill="none" />
		</clipPath>
	</defs>
</svg>
