<svg width="383" height="203" fill="none" xmlns="http://www.w3.org/2000/svg"><path d="M293 117l-8 12h-2l-25-37h-31l37 53-38 54h32l25-37h2l25 37h31l-37-54 15-22h-6c-8-1-14-3-20-6zM351 120v79h27v-97a61 61 0 01-27 18z" fill="#2D3748"/><path fill-rule="evenodd" clip-rule="evenodd" d="M111 56H85v50h-3c-6-9-16-17-34-17-25 0-48 21-48 56s23 57 48 57c18 0 28-8 35-17h2v14h26V56zm-55 56c17 0 29 12 29 33 0 22-12 34-29 34s-29-12-29-34c0-21 12-33 29-33zM123 145c0 35 22 57 54 57 29 0 42-17 48-28l-22-12c-4 8-10 17-25 17s-26-11-27-26h77v-9c0-33-20-55-51-55-32 0-54 22-54 56zm28-12c2-12 11-21 25-21s23 9 25 21h-50z" fill="#2D3748"/><path d="M281 63c-21-12-12 42 34 47 45 5 64-22 67-51 3-30-34-93-49-35-14 58-31 51-52 39z" fill="url(#paint0_linear)"/><path d="M298 59a15 15 0 100-30 15 15 0 000 30z" fill="url(#paint1_linear)"/><defs><linearGradient id="paint0_linear" x1="353.8" y1="-11.4" x2="255.8" y2="86.6" gradientUnits="userSpaceOnUse"><stop stop-color="#3DDBD9"/><stop offset="1" stop-color="#4589FF"/></linearGradient><linearGradient id="paint1_linear" x1="353.8" y1="-11.4" x2="255.8" y2="86.6" gradientUnits="userSpaceOnUse"><stop stop-color="#3DDBD9"/><stop offset="1" stop-color="#4589FF"/></linearGradient></defs></svg>