<svg width="41" height="41" fill="none" xmlns="http://www.w3.org/2000/svg"><path d="M3.94 23.3c-7.7-4.44-4.37 15.44 12.24 17.44 16.62 2 23.67-7.99 24.76-18.98 1.09-11-12.52-34.52-17.83-12.99-5.3 21.53-11.46 18.98-19.17 14.54z" fill="url(#paint0_linear)"/><path d="M10.22 21.98c3.1 0 5.6-2.53 5.6-5.66a5.64 5.64 0 00-5.6-5.66 5.64 5.64 0 00-5.61 5.66 5.64 5.64 0 005.6 5.66z" fill="url(#paint1_linear)"/><defs><linearGradient id="paint0_linear" x1="30.59" y1="-4.23" x2="-5.73" y2="31.76" gradientUnits="userSpaceOnUse"><stop stop-color="#3DDBD9"/><stop offset="1" stop-color="#4589FF"/></linearGradient><linearGradient id="paint1_linear" x1="30.59" y1="-4.23" x2="-5.73" y2="31.76" gradientUnits="userSpaceOnUse"><stop stop-color="#3DDBD9"/><stop offset="1" stop-color="#4589FF"/></linearGradient></defs></svg>